<svg width="26" height="26" viewBox="0 0 26 26" fill="none" xmlns="http://www.w3.org/2000/svg">
<path d="M5.6875 7.3125C6.3606 7.3125 6.90625 6.76685 6.90625 6.09375C6.90625 5.42065 6.3606 4.875 5.6875 4.875C5.0144 4.875 4.46875 5.42065 4.46875 6.09375C4.46875 6.76685 5.0144 7.3125 5.6875 7.3125Z" fill="black" stroke="black" stroke-width="3" stroke-linecap="round" stroke-linejoin="round"/>
<path d="M20.3125 7.3125C20.9856 7.3125 21.5312 6.76685 21.5312 6.09375C21.5312 5.42065 20.9856 4.875 20.3125 4.875C19.6394 4.875 19.0938 5.42065 19.0938 6.09375C19.0938 6.76685 19.6394 7.3125 20.3125 7.3125Z" fill="black" stroke="black" stroke-width="3" stroke-linecap="round" stroke-linejoin="round"/>
<path d="M5.6875 21.9375C6.3606 21.9375 6.90625 21.3918 6.90625 20.7188C6.90625 20.0457 6.3606 19.5 5.6875 19.5C5.0144 19.5 4.46875 20.0457 4.46875 20.7188C4.46875 21.3918 5.0144 21.9375 5.6875 21.9375Z" fill="black" stroke="black" stroke-width="3" stroke-linecap="round" stroke-linejoin="round"/>
<path d="M20.3125 21.9375C20.9856 21.9375 21.5312 21.3918 21.5312 20.7188C21.5312 20.0457 20.9856 19.5 20.3125 19.5C19.6394 19.5 19.0938 20.0457 19.0938 20.7188C19.0938 21.3918 19.6394 21.9375 20.3125 21.9375Z" fill="black" stroke="black" stroke-width="3" stroke-linecap="round" stroke-linejoin="round"/>
</svg>
