<svg width="26" height="26" viewBox="0 0 26 26" fill="none" xmlns="http://www.w3.org/2000/svg">
<path d="M12.9999 2.08936C15.401 2.08936 17.7038 3.04321 19.4017 4.74109C21.0996 6.43896 22.0534 8.74177 22.0534 11.1429C22.0534 14.9686 19.3652 19.1379 14.0584 23.6954C13.7634 23.9488 13.3871 24.0881 12.9981 24.0877C12.6091 24.0874 12.2331 23.9475 11.9385 23.6935L11.5875 23.3889C6.51565 18.9504 3.94629 14.8832 3.94629 11.1429C3.94629 8.74177 4.90014 6.43896 6.59802 4.74109C8.29589 3.04321 10.5987 2.08936 12.9999 2.08936ZM12.9999 7.66078C12.0763 7.66078 11.1906 8.02765 10.5376 8.68068C9.88459 9.33371 9.51772 10.2194 9.51772 11.1429C9.51772 12.0664 9.88459 12.9521 10.5376 13.6052C11.1906 14.2582 12.0763 14.6251 12.9999 14.6251C13.9234 14.6251 14.8091 14.2582 15.4621 13.6052C16.1151 12.9521 16.482 12.0664 16.482 11.1429C16.482 10.2194 16.1151 9.33371 15.4621 8.68068C14.8091 8.02765 13.9234 7.66078 12.9999 7.66078Z" fill="black"/>
</svg>
