<svg width="26" height="26" viewBox="0 0 26 26" fill="none" xmlns="http://www.w3.org/2000/svg">
<path d="M18.6875 0H7.3125C5.97188 0 4.875 1.09688 4.875 2.4375V23.5625C4.875 24.9031 5.97188 26 7.3125 26H18.6875C20.0281 26 21.125 24.9031 21.125 23.5625V2.4375C21.125 1.09688 20.0281 0 18.6875 0ZM9.75 1.21875H16.25V2.03125H9.75V1.21875ZM13 24.375C12.569 24.375 12.1557 24.2038 11.851 23.899C11.5462 23.5943 11.375 23.181 11.375 22.75C11.375 22.319 11.5462 21.9057 11.851 21.601C12.1557 21.2962 12.569 21.125 13 21.125C13.431 21.125 13.8443 21.2962 14.149 21.601C14.4538 21.9057 14.625 22.319 14.625 22.75C14.625 23.181 14.4538 23.5943 14.149 23.899C13.8443 24.2038 13.431 24.375 13 24.375ZM19.5 19.5H6.5V3.25H19.5V19.5Z" fill="black"/>
</svg>
