<svg width="26" height="26" viewBox="0 0 26 26" fill="none" xmlns="http://www.w3.org/2000/svg">
<path d="M17.8789 0H8.12158C6.77527 0 5.68408 1.09119 5.68408 2.4375V23.5625C5.68408 24.9088 6.77527 26 8.12158 26H17.8789C19.2252 26 20.3164 24.9088 20.3164 23.5625V2.4375C20.3164 1.09119 19.2252 0 17.8789 0ZM18.6914 23.5625C18.6914 24.011 18.3274 24.375 17.8789 24.375H8.12158C7.67308 24.375 7.30908 24.011 7.30908 23.5625V2.4375C7.30908 1.989 7.67308 1.625 8.12158 1.625H17.8789C18.3274 1.625 18.6914 1.989 18.6914 2.4375V23.5625ZM13.0015 20.317C12.1057 20.317 11.3805 21.0429 11.3805 21.9375C11.3805 22.8321 12.1061 23.5585 13.0015 23.5585C13.8972 23.5585 14.6224 22.8321 14.6224 21.9375C14.6224 21.0429 13.8972 20.317 13.0015 20.317ZM14.6265 2.4375H11.3765C10.928 2.4375 10.564 2.8015 10.564 3.25C10.564 3.6985 10.928 4.0625 11.3765 4.0625H14.6265C15.075 4.0625 15.439 3.6985 15.439 3.25C15.439 2.8015 15.075 2.4375 14.6265 2.4375Z" fill="black"/>
</svg>
