<svg width="26" height="26" viewBox="0 0 26 26" fill="none" xmlns="http://www.w3.org/2000/svg">
<path d="M6.50033 5.41667C6.69049 5.41667 6.87731 5.36662 7.042 5.27154C7.20669 5.17646 7.34345 5.0397 7.43854 4.87502C7.53362 4.71033 7.58368 4.52352 7.58369 4.33335C7.58369 4.14318 7.53363 3.95637 7.43855 3.79168C7.34347 3.62699 7.20672 3.49023 7.04203 3.39514C6.87734 3.30006 6.69053 3.25 6.50036 3.25C6.31019 3.25 6.12338 3.30006 5.95869 3.39514C5.794 3.49022 5.65724 3.62698 5.56216 3.79167H5.41699C4.98602 3.79167 4.57269 3.96287 4.26794 4.26762C3.9632 4.57236 3.79199 4.98569 3.79199 5.41667V10.2917H4.87533V5.41667C4.87533 5.27301 4.93239 5.13523 5.03398 5.03365C5.13556 4.93207 5.27333 4.875 5.41699 4.875H5.56216C5.65724 5.03968 5.79399 5.17644 5.95867 5.27152C6.12336 5.3666 6.31017 5.41666 6.50033 5.41667Z" fill="black"/>
<path fill-rule="evenodd" clip-rule="evenodd" d="M5.50347 10.2916H3.7918C3.4928 10.2916 3.24742 10.5348 3.27451 10.8327C3.3839 12.0322 3.85422 13.1703 4.62345 14.097C5.39268 15.0238 6.42471 15.6957 7.58347 16.0241V17.3333C7.58347 18.0407 8.03576 18.643 8.6668 18.8662C8.67255 19.9077 9.0918 20.9043 9.83234 21.6367C10.5729 22.3691 11.574 22.7774 12.6155 22.7716C13.6571 22.7659 14.6537 22.3466 15.3861 21.6061C16.1185 20.8655 16.5267 19.8644 16.521 18.8229V16.6562C16.521 16.1175 16.735 15.6008 17.1159 15.2199C17.4968 14.839 18.0135 14.625 18.5522 14.625C19.0909 14.625 19.6076 14.839 19.9885 15.2199C20.3695 15.6008 20.5835 16.1175 20.5835 16.6562V17.967C20.2219 18.0948 19.9172 18.3463 19.7231 18.6771C19.529 19.0078 19.4582 19.3965 19.523 19.7745C19.5878 20.1524 19.7842 20.4953 20.0773 20.7425C20.3705 20.9896 20.7417 21.1252 21.1251 21.1252C21.5086 21.1252 21.8797 20.9896 22.1729 20.7425C22.4661 20.4953 22.6625 20.1524 22.7273 19.7745C22.7921 19.3965 22.7212 19.0078 22.5272 18.6771C22.3331 18.3463 22.0284 18.0948 21.6668 17.967V16.6562C21.6668 15.8302 21.3387 15.038 20.7546 14.4539C20.1705 13.8698 19.3783 13.5416 18.5522 13.5416C17.7262 13.5416 16.934 13.8698 16.3499 14.4539C15.7658 15.038 15.4376 15.8302 15.4376 16.6562V18.8229C15.4434 19.5771 15.1493 20.3027 14.62 20.84C14.0908 21.3774 13.3698 21.6825 12.6155 21.6883C11.8613 21.694 11.1357 21.3999 10.5984 20.8707C10.061 20.3414 9.75588 19.6204 9.75013 18.8662C10.067 18.7541 10.3414 18.5464 10.5354 18.2719C10.7294 17.9974 10.8336 17.6695 10.8335 17.3333V16.0241C11.9922 15.6957 13.0242 15.0238 13.7935 14.097C14.5627 13.1703 15.033 12.0322 15.1424 10.8327C15.1695 10.5348 14.9241 10.2916 14.6251 10.2916V5.41662C14.6251 4.98564 14.4539 4.57232 14.1492 4.26757C13.8444 3.96282 13.4311 3.79162 13.0001 3.79162H12.855C12.7357 3.5851 12.5517 3.42371 12.3313 3.33245C12.111 3.2412 11.8668 3.22519 11.6364 3.28692C11.4061 3.34864 11.2025 3.48464 11.0573 3.67382C10.9122 3.86301 10.8335 4.09482 10.8335 4.33329C10.8335 4.57176 10.9122 4.80356 11.0573 4.99275C11.2025 5.18194 11.4061 5.31794 11.6364 5.37966C11.8668 5.44138 12.111 5.42537 12.3313 5.33412C12.5517 5.24287 12.7357 5.08147 12.855 4.87495H13.0001C13.1438 4.87495 13.2816 4.93202 13.3831 5.0336C13.4847 5.13519 13.5418 5.27296 13.5418 5.41662V10.2916H12.9135C12.6145 10.2916 12.3767 10.5354 12.3258 10.8306C12.199 11.5654 11.8167 12.2319 11.2463 12.7123C10.6759 13.1927 9.95419 13.4562 9.20847 13.4562C8.46274 13.4562 7.74099 13.1927 7.17062 12.7123C6.60025 12.2319 6.21794 11.5654 6.09117 10.8306C6.04026 10.5359 5.80247 10.2916 5.50347 10.2916ZM13.3143 11.375H13.9616C13.7161 12.452 13.1121 13.4138 12.2486 14.1026C11.385 14.7915 10.3131 15.1667 9.20847 15.1667C8.1038 15.1667 7.03189 14.7915 6.16834 14.1026C5.30478 13.4138 4.7008 12.452 4.45534 11.375H5.10263C5.34204 12.2813 5.87461 13.0829 6.6173 13.6549C7.35998 14.2269 8.27105 14.537 9.20847 14.537C10.1459 14.537 11.0569 14.2269 11.7996 13.6549C12.5423 13.0829 13.0749 12.2813 13.3143 11.375ZM21.1251 18.9583C21.2688 18.9583 21.4066 19.0154 21.5081 19.1169C21.6097 19.2185 21.6668 19.3563 21.6668 19.5C21.6668 19.6436 21.6097 19.7814 21.5081 19.883C21.4066 19.9846 21.2688 20.0416 21.1251 20.0416C20.9815 20.0416 20.8437 19.9846 20.7421 19.883C20.6405 19.7814 20.5835 19.6436 20.5835 19.5C20.5835 19.3563 20.6405 19.2185 20.7421 19.1169C20.8437 19.0154 20.9815 18.9583 21.1251 18.9583ZM9.75013 16.25V17.3333C9.75013 17.4769 9.69306 17.6147 9.59148 17.7163C9.4899 17.8179 9.35212 17.875 9.20847 17.875C9.06481 17.875 8.92703 17.8179 8.82545 17.7163C8.72387 17.6147 8.6668 17.4769 8.6668 17.3333V16.25H9.75013Z" fill="black"/>
</svg>
